<?xml version="1.0"?>
<svg width="54" height="54" xmlns="http://www.w3.org/2000/svg" xmlns:svg="http://www.w3.org/2000/svg" xmlns:xlink="http://www.w3.org/1999/xlink" clip-rule="evenodd" fill-rule="evenodd" stroke-linejoin="round" xml:space="preserve">
 <g class="layer">
  <title>Layer 1</title>
  <g id="svg_78">
   <g id="svg_79">
    <g id="svg_80">
     <path d="m29.71,32.89c-0.92,-0.03 -1.87,-0.05 -2.82,-0.05c-0.9,0 -1.79,0.02 -2.66,0.04c-11.72,0.39 -20.84,3.3 -20.84,6.84c0,3.8 10.52,6.88 23.49,6.88c12.97,0 23.49,-3.08 23.49,-6.88c0,-3.52 -9.02,-6.43 -20.67,-6.83zm-2.82,9.86c-9.14,0 -16.55,-1.97 -16.55,-4.41c0,-2.1 5.53,-3.86 12.92,-4.3c1.17,-0.07 2.38,-0.11 3.63,-0.11c1.32,0 2.61,0.04 3.84,0.12c7.29,0.46 12.71,2.2 12.71,4.28c0,2.44 -7.41,4.41 -16.55,4.41l0,0z" id="svg_81"/>
    </g>
    <g id="svg_82">
     <path d="m24.21,10.26c0,-1.52 1.32,-2.76 2.93,-2.76c1.63,0 2.93,1.23 2.93,2.76c0,1.52 -1.31,2.76 -2.93,2.76c-1.62,0 -2.93,-1.23 -2.93,-2.76z" id="svg_83"/>
    </g>
    <g id="svg_84">
     <path d="m24.53,22.79" fill="none" id="svg_85"/>
     <path d="m26.35,41.65c-6.08,0 -16.07,-1.63 -10.23,-3.61c3.45,-1.17 5.7,-2.54 7.14,-3.99c0.38,-0.39 0.7,-0.77 0.97,-1.16c0.88,-0.03 1.76,-0.04 2.66,-0.04c0.95,0 1.9,0.02 2.82,0.05c0.29,0.4 0.62,0.78 1.02,1.17c1.5,1.44 3.84,2.8 7.43,3.98c5.83,1.89 -5.73,3.6 -11.81,3.6z" id="svg_86"/>
    </g>
    <g id="svg_87">
     <path d="m24.53,22.79c-0.21,-0.92 -0.27,-1.52 -0.3,-1.82l0,-0.24c0,-1.52 1.32,-2.76 2.93,-2.76c1.63,0 2.93,1.23 2.93,2.76c0,0.56 -0.18,1.08 -0.49,1.52c-0.39,2.54 -2.71,6.77 0.11,10.65c-0.93,-0.03 -1.87,-0.05 -2.82,-0.05c-0.9,0 -1.78,0.01 -2.66,0.04c2.49,-3.61 0.75,-7.52 0.29,-10.1" id="svg_88"/>
     <path d="m29.78,22.79c0.21,-0.92 0.27,-1.52 0.3,-1.82l0,-0.24c0,-1.52 -1.32,-2.76 -2.93,-2.76c-1.63,0 -2.93,1.23 -2.93,2.76c0,0.56 0.18,1.08 0.49,1.52c0.39,2.54 2.71,6.77 -0.11,10.65c0.93,-0.03 1.87,-0.05 2.82,-0.05c0.9,0 1.8,0.07 2.67,0.11c-2.49,-3.61 -0.76,-7.58 -0.3,-10.16" id="svg_89"/>
     <path d="m24.21,20.73l0,0.08l0,-0.08z" id="svg_90"/>
     <path d="m24.53,22.79" fill="none" id="svg_91"/>
    </g>
   </g>
  </g>
  <image height="0" id="svg_95" width="0" x="945" xlink:href="./images/logo.svg" y="608.33"/>
 </g>

</svg>